<svg xmlns="http://www.w3.org/2000/svg" viewBox="0 0 497.6 342.9"><defs><style>.cls-1{fill:#fff;}</style></defs><g id="Capa_2" data-name="Capa 2"><g id="LOGO2_WHITE" data-name="LOGO2 WHITE"><path class="cls-1" d="M313.21,110.88c-11.5,1.06-23.35,3.47-33,10.17a36,36,0,0,0-14,19.41A58.75,58.75,0,0,0,264.46,168a42.43,42.43,0,0,0,11.71,22.18c5.82,6,13.27,10.28,21,13.33,15,5.73,31.25,7.36,47.21,7.15,16.88-1.08,31.87-13.21,38.16-28.64C386.3,173.19,387,163.42,386,154a51.57,51.57,0,0,0-5.34-18.55,40.39,40.39,0,0,0-10.89-13.09c-6.77-5.3-15-8.41-23.38-10.1C335.5,110.11,324.27,110,313.21,110.88Zm11.46,60.27c-3.31,4.41-8.41,7.77-14,7.95a17.47,17.47,0,0,1-12.8-5,27.36,27.36,0,0,1-8.14-16.68,30.22,30.22,0,0,1,5.45-22,19.34,19.34,0,0,1,12.38-7.79c6.06-1,12.2,1.93,16.1,6.52C332.29,144.34,332.61,160.52,324.67,171.15Zm67.81,65a29.11,29.11,0,0,0-14.12-11.81c-8-3.31-16.8-4.08-25.38-4.21-7.39-.08-14.73,1-22.11,1.24-5.31.35-10.77.07-15.87,1.78a2.55,2.55,0,0,0-1.65,2.62c-.39,23.38-.87,46.76-1.09,70.14.11,6.35-.22,12.72.19,19.06,7.54.07,15.08.53,22.62.3,11.8-.23,23.66-1,35.21-3.54,8.82-2.71,16.39-8.86,21.7-16.33,6.35-9.3,8.87-20.82,8.49-32C400.11,253.9,397.8,244.21,392.48,236.17Zm-30.15,44.19c-1.25,4-3.75,7.9-7.6,9.81a19.59,19.59,0,0,1-9.57,1.83c-1.25-2.91-1.26-6.12-1.52-9.22-.68-12.72-.21-25.44-.18-38.17.19-1.48,1.11-2.74,1.75-4.07,2.46-.41,5,.17,7.45.71a13,13,0,0,1,8.55,6.46c2.63,4.95,2.9,10.72,2.82,16.21C364.11,269.44,363.89,275,362.33,280.36Zm-70.58-18.63c-4.22-14-8.68-27.87-12.75-41.89-14.55-.81-29.1-1.72-43.66-2.38a23.8,23.8,0,0,0-1.52,4.88c-7.62,30.45-16,60.72-22.13,91.53-.56,1.33.74,2.22,1.44,3.16,1.61-.15,3.21-.28,4.83-.41-1.08,4.93-2.24,9.85-3.34,14.78-11.59-2.6-23.16-5.27-34.74-7.93.55-3.05,1.13-6.09,1.64-9.14a72.58,72.58,0,0,1,8.6-.07c5,.05,10.07,0,15.11,0a2.25,2.25,0,0,0,2.44-1.25c.66-2,.22-4.21.35-6.29.26-4.55,0-9.11.23-13.65a15.49,15.49,0,0,0-.17-3.67c-1.29-1.18-3.15-1-4.77-1.05-10,.15-20,1.36-30,1.42.19-3.93.15-7.86.14-11.8,7.77-.35,15.54-.76,23.3-1.35a53.56,53.56,0,0,1,7.59-.33c.88-4.55.17-9.21.29-13.81-.1-2.49.28-5,.2-7.46a2.3,2.3,0,0,0-2.4-1.12l-29.25,1.26c.14-3.15.67-6.26,1.11-9.38q15-.24,30-1c1.14-.1,2.48-.23,3.25-1.19s.87-2.4.91-3.64c.1-7.18.43-14.35.48-21.52-23.18,1.55-46.36,3.19-69.54,4.7.14,29.46-.53,58.9-.48,88.36-.23,1.47.71,2.57,1.62,3.58,9.57.08,19.12-.47,28.69-.55-.67,3.09-1.39,6.16-2,9.26a5,5,0,0,0,1.34,4.66c1.1,1.19,2.82,1.35,4.29,1.82q22.23,6.21,44.45,12.44c2,.55,4.59,0,5.38-2.14Q228.3,328,234,315.38c2.9-.26,5.86-.11,8.71-.8.71-.26,1.79-.46,2-1.32.87-4.12,1.51-8.29,2.43-12.39,6.4-.26,12.82-.9,19.21-.94,2.65,2.12,5.23,12.05,5.82,13.7,1.61,1.75,4.3,1.27,6.44,1.36,8.33-.63,16.66-1.21,25-1.66,1.22-.1,3.16-.26,3.26-1.85a42.36,42.36,0,0,0-1.54-5.53Q298.54,283.84,291.75,261.73Zm-41.92,17.89c-.57-1.11-1.85-2.09-1.55-3.44.85-5,1.76-10,2.62-15,.87-4.7,1.47-9.47,3-14,.74-2.09,1.41-4.29,2.93-6,2.45,9.95,4.68,20,7.05,29.93a49.26,49.26,0,0,1,1.2,5.87C260.41,279.43,254.94,279.2,249.83,279.62ZM497,206.11c-4.91,6.71-9.93,13.33-14.84,20,2,2.41,4,5,4.89,8.06a37.24,37.24,0,0,1,.9,5.56c-.95.9-1.76,2.36-3.27,2.18-8.3.3-16.6.37-24.91.44-1.78,0-3.76.09-5.3-.94-1.07-1-1.34-2.66-2.43-3.67-1.68-1-3.76-.83-5.6-.47s-3.74.81-4.9,2.34a2.23,2.23,0,0,0,.67,2.78c2.15,1.91,5.14,2.2,7.8,3,8.53,2.33,17.43,3.65,25.47,7.49,4.47,2.12,8.75,5.06,11.4,9.33,2.64,4.11,3.5,9.11,3.37,13.94a87.4,87.4,0,0,1-1.08,12.51,24.61,24.61,0,0,1-7.07,12.63c-5.15,4.92-11.89,7.86-18.77,9.4a96.83,96.83,0,0,1-19.55,2.43c-10.06-.48-20.6-1.75-29.31-7.2-7.5-4.67-11.13-13.77-11-22.36,5.56-1.21,11.23-1.85,16.87-2.64,5-.59,10-1.35,15-1.61,2.14-.29,2.86,2.05,3.63,3.55,1.17,2.06,1.43,4.91,3.74,6.11a9.15,9.15,0,0,0,10.68-1.81c1.35-1.58,1.76-4.18.22-5.79-2.72-2.85-6.78-3.57-10.41-4.61-4.72-1.36-9.69-1.59-14.35-3.16-5.61-1.77-11.25-3.89-15.91-7.58a12.16,12.16,0,0,1-4-5.46A37,37,0,0,1,406.74,246a27.81,27.81,0,0,1,9.73-20.75c5.72-4.67,12.83-7.3,20-8.8a80.84,80.84,0,0,1,19.09-1.19c6.89.37,13.84,1.68,20,4.83q7.71-8,15.44-15.87-9.6-17.31-19.17-34.63c-2,2.07-3.94,4.28-5.86,6.46-.23,8.69.09,17.4-.15,26.09-.89,1.35-2.71,1.27-4.13,1.29-12.53.25-25.08.49-37.61.3l-.38-.11c-1.69-2.81-2.56-6-3.69-9.08-4.3-12.25-8.61-24.5-13.15-36.67,0,8.31-.29,16.61-.09,24.92.17,6.92.27,13.86.13,20.79a2.13,2.13,0,0,1-2.61,2.05c-9-.93-18-1.81-27-2.8.09-1.28-.4-2.82.68-3.79a55.07,55.07,0,0,0,13.83-35.34c.44-14.64-3.3-30.18-13.69-41a45.53,45.53,0,0,1,.23-6.91q18.76-3.34,37.54-6.66c2.36,4.07,3.66,8.64,5.37,13,4.46,12.19,8.88,24.41,13.43,36.56.07-6,0-12.06,0-18.09-.06-8.32.31-16.63.23-24.94a42.94,42.94,0,0,1,.09-4.54c1.64-1.37,3.91-1.5,5.94-1.87,8.15-1,16.37-1.42,24.54-2.2.42,18.51.38,37,.39,55.56,2.58-1.65,5.07-3.47,7.8-4.87,1.37-.9,3.05.27,3.52,1.64q9.44,20.46,18.85,40.92C496.88,202.1,498.43,204.24,497,206.11ZM240.45,122.79c-7.86-6.42-17.87-9.46-27.75-11a133.46,133.46,0,0,0-31.26-.89c-12.25,1.14-24.82,4.49-34.52,12.4a43.17,43.17,0,0,0-14.75,24.77c-1.92,9.16-2.09,18.83.48,27.88,4.52,16.39,18.33,29.9,34.93,33.74,5.37,1.3,10.93,1,16.41.8a126.54,126.54,0,0,0,31.46-5c8.37-2.6,16.47-6.4,23.23-12a43.64,43.64,0,0,0,14-20.47c3.11-9.84,2.61-20.51.07-30.42A36.78,36.78,0,0,0,240.45,122.79ZM223,171.54c-3.35,4.27-8.43,7.48-14,7.56a17.84,17.84,0,0,1-13.64-6c-8.62-9.32-9.6-24.39-3.24-35.19,2.89-4.9,7.61-9,13.3-10.06a16.76,16.76,0,0,1,12.11,2.38c5.65,3.53,9.21,9.69,10.66,16.07C230.1,154.9,228.47,164.52,223,171.54ZM137,209.88q-13.39-.67-26.77-1.37c-1.41,0-1.8-1.68-2.22-2.74-1.58-5.89-1.26-12.06-1.31-18.09-.09-9.1.38-18.2,0-27.3-4.15,16-7.06,32.21-10.9,48.25-1.05,1.8-3.63,1.37-5.41,1.36-6.46-1.15-12.9-2.45-19.28-4-1.6-.51-3.47-.64-4.82-1.68-3.86-16.32-6.89-32.84-10.81-49.15-.22,8.8-.6,17.6-.62,26.41s-.12,17.55.12,26.32c0,.75-.36,1.78-1.29,1.65-8.61-.48-17.22-.64-25.81-1.25-3.57-.44-7.18-.42-10.77-.72C22,224.15,27,240.72,31.94,257.31q8.13,1.72,16.28,3.32.53-9.63.9-19.26c.21-4.89.22-9.81.77-14.67a15.18,15.18,0,0,1,.9-3.82c8.79.12,17.58-.33,26.36,0,2.5.19,5.2.29,7.38,1.68,1.34.86,1.66,2.56,1.71,4,0,2.84-.36,5.66-.35,8.5,0,5-.66,10-.58,15,4.11-.08,8.27.4,12.35-.28.07-7.11.22-14.23.25-21.34.27-3.66-.17-7.35.39-11,.18-.74.29-1.77,1.18-2,2-.45,4-.05,5.94-.08,7-.17,14-.81,21,.15,1.66.25,4.1.89,4,3,.32,9.26-.21,18.53.08,27.78-.09,12.87.19,25.72.12,38.59.28,5.17,0,10.36.22,15.53,0,2.2.05,4.4,0,6.6.09.93-.93,1.31-1.63,1.59a33.58,33.58,0,0,1-8.23,1.11c-7.71.28-15.41.63-23.12.84-.72-1.1-2-2.08-1.73-3.53,0-7.38.28-14.75.37-22.13-.1-2.15.36-4.33-.18-6.44-3.52-.64-7.14,0-10.67.37-.27,10.83-.64,21.65-.81,32.48-2,1.13-4.24,1.31-6.43,1.57-6.36.65-12.76.55-19.14,1-2.93.19-5.9.61-8.83.21-1.52-.44-3.14-1.39-3.53-3a23.2,23.2,0,0,1-.68-7.78c.27-9.7.84-19.39,1.15-29.09-7.39-2.11-14.72-4.4-22.09-6.59a8.44,8.44,0,0,1-5.69-6C13.07,242.77,6.47,221.87,0,200.93a5.28,5.28,0,0,1,3.94-3.05c7.46-.89,14.94-1.73,22.41-2.6,0-25.92,0-51.83,0-77.74-.19-1.78,1.87-2.28,3.24-2.31,8.79-.1,17.58,0,26.37.22,5.43.16,10.83.74,16.26.85,2.35,13.34,4.88,26.65,7.4,40C83.44,141.19,87.28,126.12,91,111q20,2,40.08,3.91c2.51.35,5.12.25,7.57.92,1.54,1.87.66,4.49,1,6.69a50.76,50.76,0,0,0-13.1,26.11,64,64,0,0,0,0,25.39A53.58,53.58,0,0,0,140,199.64c.54.63,1.51,1.15,1.25,2.13a23.27,23.27,0,0,1-1.07,5.68C139.73,208.77,138.55,210.09,137,209.88ZM389.23,101.72c-9.24,1.61-18.53,3.31-27.72,4.9-15.83-6.1-33.18-6.68-49.91-5.3-10.71,1-21.5,3.23-31.11,8.23a46,46,0,0,0-17.32,15.16,66.72,66.72,0,0,0-4,7.07,45.28,45.28,0,0,0-17.22-19.9c-7.5-4.8-16.13-7.53-24.83-9.17a141.13,141.13,0,0,0-30.31-1.87,99.72,99.72,0,0,0-28.72,5.33c-7.62-.86-15.28-1.51-22.91-2.28-1.46-.17-2.94-.27-4.43-.38,0,0,26.25-22.6,39-27.63h0a195,195,0,0,1,31.66-10.64c4.1-.83,7.74-3,11.31-5.09A75.07,75.07,0,0,0,235.1,39.23,78.32,78.32,0,0,0,243,24.53a40.87,40.87,0,0,1,4.79,19.67A74,74,0,0,0,264.5,21.61,52.24,52.24,0,0,0,269.16,0a140.61,140.61,0,0,1,10.4,22.49c3.59,9.88,6.16,20.32,5.65,30.91,7.51-1.78,15-4,21.86-7.6A29.11,29.11,0,0,0,315,39.66a68.11,68.11,0,0,1-9.4,22.18,210.55,210.55,0,0,1,45.27,12.84C362.45,79.23,385,98.14,389.23,101.72Z"/></g></g></svg>